<mxfile host="app.diagrams.net" modified="2023-10-23T17:26:39.876Z" agent="Mozilla/5.0 (Windows NT 10.0; Win64; x64) AppleWebKit/537.36 (KHTML, like Gecko) Chrome/118.0.0.0 Safari/537.36" etag="Mnue6Tw_Lj7b_W0l1JW_" version="22.0.6" type="device">
  <diagram name="PÃ¡gina-1" id="PhB3kFOO5pBqGQk1rE4o">
    <mxGraphModel dx="1247" dy="687" grid="1" gridSize="10" guides="1" tooltips="1" connect="1" arrows="1" fold="1" page="1" pageScale="1" pageWidth="827" pageHeight="1169" math="0" shadow="0">
      <root>
        <mxCell id="0" />
        <mxCell id="1" parent="0" />
        <mxCell id="etvHFpxP28_wURjYX3SG-2" value="" style="rounded=0;whiteSpace=wrap;html=1;fillColor=#dae8fc;strokeColor=#6c8ebf;" vertex="1" parent="1">
          <mxGeometry x="40" y="80" width="690" height="220" as="geometry" />
        </mxCell>
        <mxCell id="etvHFpxP28_wURjYX3SG-26" value="" style="group" vertex="1" connectable="0" parent="1">
          <mxGeometry x="70" y="85" width="310" height="95" as="geometry" />
        </mxCell>
        <mxCell id="etvHFpxP28_wURjYX3SG-6" value="" style="rounded=0;whiteSpace=wrap;html=1;fillColor=#ffe6cc;strokeColor=#d79b00;" vertex="1" parent="etvHFpxP28_wURjYX3SG-26">
          <mxGeometry width="310" height="95" as="geometry" />
        </mxCell>
        <mxCell id="etvHFpxP28_wURjYX3SG-13" value="" style="rounded=0;whiteSpace=wrap;html=1;fillColor=#d5e8d4;strokeColor=#82b366;" vertex="1" parent="etvHFpxP28_wURjYX3SG-26">
          <mxGeometry x="10" y="5" width="90" height="80" as="geometry" />
        </mxCell>
        <mxCell id="etvHFpxP28_wURjYX3SG-17" value="88" style="rounded=0;whiteSpace=wrap;html=1;fillColor=#f8cecc;strokeColor=#b85450;" vertex="1" parent="etvHFpxP28_wURjYX3SG-26">
          <mxGeometry x="20" y="12.5" width="30" height="65" as="geometry" />
        </mxCell>
        <mxCell id="etvHFpxP28_wURjYX3SG-18" value="27" style="rounded=0;whiteSpace=wrap;html=1;fillColor=#f8cecc;strokeColor=#b85450;" vertex="1" parent="etvHFpxP28_wURjYX3SG-26">
          <mxGeometry x="60" y="12.5" width="30" height="65" as="geometry" />
        </mxCell>
        <mxCell id="etvHFpxP28_wURjYX3SG-20" value="" style="rounded=0;whiteSpace=wrap;html=1;fillColor=#d5e8d4;strokeColor=#82b366;" vertex="1" parent="etvHFpxP28_wURjYX3SG-26">
          <mxGeometry x="110" y="5" width="90" height="80" as="geometry" />
        </mxCell>
        <mxCell id="etvHFpxP28_wURjYX3SG-21" value="12" style="rounded=0;whiteSpace=wrap;html=1;fillColor=#f8cecc;strokeColor=#b85450;" vertex="1" parent="etvHFpxP28_wURjYX3SG-26">
          <mxGeometry x="120" y="12.5" width="30" height="65" as="geometry" />
        </mxCell>
        <mxCell id="etvHFpxP28_wURjYX3SG-22" value="" style="rounded=0;whiteSpace=wrap;html=1;fillColor=#f8cecc;strokeColor=#b85450;" vertex="1" parent="etvHFpxP28_wURjYX3SG-26">
          <mxGeometry x="160" y="12.5" width="30" height="65" as="geometry" />
        </mxCell>
        <mxCell id="etvHFpxP28_wURjYX3SG-23" value="" style="rounded=0;whiteSpace=wrap;html=1;fillColor=#d5e8d4;strokeColor=#82b366;" vertex="1" parent="etvHFpxP28_wURjYX3SG-26">
          <mxGeometry x="210" y="5" width="90" height="80" as="geometry" />
        </mxCell>
        <mxCell id="etvHFpxP28_wURjYX3SG-24" value="" style="rounded=0;whiteSpace=wrap;html=1;fillColor=#f8cecc;strokeColor=#b85450;" vertex="1" parent="etvHFpxP28_wURjYX3SG-26">
          <mxGeometry x="220" y="12.5" width="30" height="65" as="geometry" />
        </mxCell>
        <mxCell id="etvHFpxP28_wURjYX3SG-25" value="" style="rounded=0;whiteSpace=wrap;html=1;fillColor=#f8cecc;strokeColor=#b85450;" vertex="1" parent="etvHFpxP28_wURjYX3SG-26">
          <mxGeometry x="260" y="12.5" width="30" height="65" as="geometry" />
        </mxCell>
        <mxCell id="etvHFpxP28_wURjYX3SG-27" value="" style="group" vertex="1" connectable="0" parent="1">
          <mxGeometry x="400" y="85" width="310" height="95" as="geometry" />
        </mxCell>
        <mxCell id="etvHFpxP28_wURjYX3SG-28" value="" style="rounded=0;whiteSpace=wrap;html=1;fillColor=#ffe6cc;strokeColor=#d79b00;" vertex="1" parent="etvHFpxP28_wURjYX3SG-27">
          <mxGeometry width="310" height="95" as="geometry" />
        </mxCell>
        <mxCell id="etvHFpxP28_wURjYX3SG-29" value="" style="rounded=0;whiteSpace=wrap;html=1;fillColor=#d5e8d4;strokeColor=#82b366;" vertex="1" parent="etvHFpxP28_wURjYX3SG-27">
          <mxGeometry x="10" y="5" width="90" height="80" as="geometry" />
        </mxCell>
        <mxCell id="etvHFpxP28_wURjYX3SG-30" value="" style="rounded=0;whiteSpace=wrap;html=1;fillColor=#f8cecc;strokeColor=#b85450;" vertex="1" parent="etvHFpxP28_wURjYX3SG-27">
          <mxGeometry x="20" y="12.5" width="30" height="65" as="geometry" />
        </mxCell>
        <mxCell id="etvHFpxP28_wURjYX3SG-31" value="" style="rounded=0;whiteSpace=wrap;html=1;fillColor=#f8cecc;strokeColor=#b85450;" vertex="1" parent="etvHFpxP28_wURjYX3SG-27">
          <mxGeometry x="60" y="12.5" width="30" height="65" as="geometry" />
        </mxCell>
        <mxCell id="etvHFpxP28_wURjYX3SG-32" value="" style="rounded=0;whiteSpace=wrap;html=1;fillColor=#d5e8d4;strokeColor=#82b366;" vertex="1" parent="etvHFpxP28_wURjYX3SG-27">
          <mxGeometry x="110" y="5" width="90" height="80" as="geometry" />
        </mxCell>
        <mxCell id="etvHFpxP28_wURjYX3SG-33" value="" style="rounded=0;whiteSpace=wrap;html=1;fillColor=#f8cecc;strokeColor=#b85450;" vertex="1" parent="etvHFpxP28_wURjYX3SG-27">
          <mxGeometry x="120" y="12.5" width="30" height="65" as="geometry" />
        </mxCell>
        <mxCell id="etvHFpxP28_wURjYX3SG-34" value="" style="rounded=0;whiteSpace=wrap;html=1;fillColor=#f8cecc;strokeColor=#b85450;" vertex="1" parent="etvHFpxP28_wURjYX3SG-27">
          <mxGeometry x="160" y="12.5" width="30" height="65" as="geometry" />
        </mxCell>
        <mxCell id="etvHFpxP28_wURjYX3SG-35" value="" style="rounded=0;whiteSpace=wrap;html=1;fillColor=#d5e8d4;strokeColor=#82b366;" vertex="1" parent="etvHFpxP28_wURjYX3SG-27">
          <mxGeometry x="210" y="5" width="90" height="80" as="geometry" />
        </mxCell>
        <mxCell id="etvHFpxP28_wURjYX3SG-36" value="" style="rounded=0;whiteSpace=wrap;html=1;fillColor=#f8cecc;strokeColor=#b85450;" vertex="1" parent="etvHFpxP28_wURjYX3SG-27">
          <mxGeometry x="220" y="12.5" width="30" height="65" as="geometry" />
        </mxCell>
        <mxCell id="etvHFpxP28_wURjYX3SG-37" value="" style="rounded=0;whiteSpace=wrap;html=1;fillColor=#f8cecc;strokeColor=#b85450;" vertex="1" parent="etvHFpxP28_wURjYX3SG-27">
          <mxGeometry x="260" y="12.5" width="30" height="65" as="geometry" />
        </mxCell>
        <mxCell id="etvHFpxP28_wURjYX3SG-38" value="" style="group" vertex="1" connectable="0" parent="1">
          <mxGeometry x="70" y="190" width="310" height="95" as="geometry" />
        </mxCell>
        <mxCell id="etvHFpxP28_wURjYX3SG-39" value="" style="rounded=0;whiteSpace=wrap;html=1;fillColor=#ffe6cc;strokeColor=#d79b00;" vertex="1" parent="etvHFpxP28_wURjYX3SG-38">
          <mxGeometry width="310" height="95" as="geometry" />
        </mxCell>
        <mxCell id="etvHFpxP28_wURjYX3SG-40" value="" style="rounded=0;whiteSpace=wrap;html=1;fillColor=#d5e8d4;strokeColor=#82b366;" vertex="1" parent="etvHFpxP28_wURjYX3SG-38">
          <mxGeometry x="10" y="5" width="90" height="80" as="geometry" />
        </mxCell>
        <mxCell id="etvHFpxP28_wURjYX3SG-41" value="1" style="rounded=0;whiteSpace=wrap;html=1;fillColor=#f8cecc;strokeColor=#b85450;" vertex="1" parent="etvHFpxP28_wURjYX3SG-38">
          <mxGeometry x="20" y="12.5" width="30" height="65" as="geometry" />
        </mxCell>
        <mxCell id="etvHFpxP28_wURjYX3SG-42" value="" style="rounded=0;whiteSpace=wrap;html=1;fillColor=#f8cecc;strokeColor=#b85450;" vertex="1" parent="etvHFpxP28_wURjYX3SG-38">
          <mxGeometry x="60" y="12.5" width="30" height="65" as="geometry" />
        </mxCell>
        <mxCell id="etvHFpxP28_wURjYX3SG-43" value="" style="rounded=0;whiteSpace=wrap;html=1;fillColor=#d5e8d4;strokeColor=#82b366;" vertex="1" parent="etvHFpxP28_wURjYX3SG-38">
          <mxGeometry x="110" y="5" width="90" height="80" as="geometry" />
        </mxCell>
        <mxCell id="etvHFpxP28_wURjYX3SG-44" value="6" style="rounded=0;whiteSpace=wrap;html=1;fillColor=#f8cecc;strokeColor=#b85450;" vertex="1" parent="etvHFpxP28_wURjYX3SG-38">
          <mxGeometry x="120" y="12.5" width="30" height="65" as="geometry" />
        </mxCell>
        <mxCell id="etvHFpxP28_wURjYX3SG-45" value="6754" style="rounded=0;whiteSpace=wrap;html=1;fillColor=#f8cecc;strokeColor=#b85450;" vertex="1" parent="etvHFpxP28_wURjYX3SG-38">
          <mxGeometry x="160" y="12.5" width="30" height="65" as="geometry" />
        </mxCell>
        <mxCell id="etvHFpxP28_wURjYX3SG-46" value="" style="rounded=0;whiteSpace=wrap;html=1;fillColor=#d5e8d4;strokeColor=#82b366;" vertex="1" parent="etvHFpxP28_wURjYX3SG-38">
          <mxGeometry x="210" y="5" width="90" height="80" as="geometry" />
        </mxCell>
        <mxCell id="etvHFpxP28_wURjYX3SG-47" value="" style="rounded=0;whiteSpace=wrap;html=1;fillColor=#f8cecc;strokeColor=#b85450;" vertex="1" parent="etvHFpxP28_wURjYX3SG-38">
          <mxGeometry x="220" y="12.5" width="30" height="65" as="geometry" />
        </mxCell>
        <mxCell id="etvHFpxP28_wURjYX3SG-48" value="123" style="rounded=0;whiteSpace=wrap;html=1;fillColor=#f8cecc;strokeColor=#b85450;" vertex="1" parent="etvHFpxP28_wURjYX3SG-38">
          <mxGeometry x="260" y="12.5" width="30" height="65" as="geometry" />
        </mxCell>
        <mxCell id="etvHFpxP28_wURjYX3SG-49" value="" style="group" vertex="1" connectable="0" parent="1">
          <mxGeometry x="400" y="190" width="310" height="95" as="geometry" />
        </mxCell>
        <mxCell id="etvHFpxP28_wURjYX3SG-50" value="" style="rounded=0;whiteSpace=wrap;html=1;fillColor=#ffe6cc;strokeColor=#d79b00;" vertex="1" parent="etvHFpxP28_wURjYX3SG-49">
          <mxGeometry width="310" height="95" as="geometry" />
        </mxCell>
        <mxCell id="etvHFpxP28_wURjYX3SG-51" value="" style="rounded=0;whiteSpace=wrap;html=1;fillColor=#d5e8d4;strokeColor=#82b366;" vertex="1" parent="etvHFpxP28_wURjYX3SG-49">
          <mxGeometry x="10" y="5" width="90" height="80" as="geometry" />
        </mxCell>
        <mxCell id="etvHFpxP28_wURjYX3SG-52" value="" style="rounded=0;whiteSpace=wrap;html=1;fillColor=#f8cecc;strokeColor=#b85450;" vertex="1" parent="etvHFpxP28_wURjYX3SG-49">
          <mxGeometry x="20" y="12.5" width="30" height="65" as="geometry" />
        </mxCell>
        <mxCell id="etvHFpxP28_wURjYX3SG-53" value="12" style="rounded=0;whiteSpace=wrap;html=1;fillColor=#f8cecc;strokeColor=#b85450;" vertex="1" parent="etvHFpxP28_wURjYX3SG-49">
          <mxGeometry x="60" y="12.5" width="30" height="65" as="geometry" />
        </mxCell>
        <mxCell id="etvHFpxP28_wURjYX3SG-54" value="" style="rounded=0;whiteSpace=wrap;html=1;fillColor=#d5e8d4;strokeColor=#82b366;" vertex="1" parent="etvHFpxP28_wURjYX3SG-49">
          <mxGeometry x="110" y="5" width="90" height="80" as="geometry" />
        </mxCell>
        <mxCell id="etvHFpxP28_wURjYX3SG-55" value="" style="rounded=0;whiteSpace=wrap;html=1;fillColor=#f8cecc;strokeColor=#b85450;" vertex="1" parent="etvHFpxP28_wURjYX3SG-49">
          <mxGeometry x="120" y="12.5" width="30" height="65" as="geometry" />
        </mxCell>
        <mxCell id="etvHFpxP28_wURjYX3SG-56" value="23" style="rounded=0;whiteSpace=wrap;html=1;fillColor=#f8cecc;strokeColor=#b85450;" vertex="1" parent="etvHFpxP28_wURjYX3SG-49">
          <mxGeometry x="160" y="12.5" width="30" height="65" as="geometry" />
        </mxCell>
        <mxCell id="etvHFpxP28_wURjYX3SG-57" value="" style="rounded=0;whiteSpace=wrap;html=1;fillColor=#d5e8d4;strokeColor=#82b366;" vertex="1" parent="etvHFpxP28_wURjYX3SG-49">
          <mxGeometry x="210" y="5" width="90" height="80" as="geometry" />
        </mxCell>
        <mxCell id="etvHFpxP28_wURjYX3SG-58" value="" style="rounded=0;whiteSpace=wrap;html=1;fillColor=#f8cecc;strokeColor=#b85450;" vertex="1" parent="etvHFpxP28_wURjYX3SG-49">
          <mxGeometry x="220" y="12.5" width="30" height="65" as="geometry" />
        </mxCell>
        <mxCell id="etvHFpxP28_wURjYX3SG-59" value="55" style="rounded=0;whiteSpace=wrap;html=1;fillColor=#f8cecc;strokeColor=#b85450;" vertex="1" parent="etvHFpxP28_wURjYX3SG-49">
          <mxGeometry x="260" y="12.5" width="30" height="65" as="geometry" />
        </mxCell>
      </root>
    </mxGraphModel>
  </diagram>
</mxfile>
